<svg data-v-423bf9ae="" xmlns="http://www.w3.org/2000/svg" viewBox="0 0 67.48872584801728 60" class="font"><!----><!----><!----><g data-v-423bf9ae="" id="fa490b3a-42f4-4fd8-98f2-3c0b5f347045" fill="black" transform="matrix(4.511278454273106,0,0,4.511278454273106,-2.661655127540662,-13.12782045072229)"><path d="M3.96 7.43L3.96 7.43L3.96 7.43Q3.37 7.43 3.02 7.74L3.02 7.74L3.02 7.74Q2.67 8.04 2.67 8.55L2.67 8.55L2.67 8.55Q2.67 9.07 3.02 9.46L3.02 9.46L3.02 9.46Q3.36 9.86 4.19 10.53L4.19 10.53L4.19 10.53Q5.01 11.20 5.21 11.37L5.21 11.37L5.21 11.37Q6.33 12.29 6.33 13.52L6.33 13.52L6.33 13.52Q6.33 14.76 5.52 15.48L5.52 15.48L5.52 15.48Q4.70 16.21 3.21 16.21L3.21 16.21L3.21 16.21Q2.09 16.21 1.34 15.79L1.34 15.79L1.34 15.79Q0.59 15.36 0.59 14.55L0.59 14.55L0.59 14.55Q0.59 13.97 1.26 13.30L1.26 13.30L1.26 13.30Q1.50 14.31 2.12 14.81L2.12 14.81L2.12 14.81Q2.74 15.30 3.42 15.30L3.42 15.30L3.42 15.30Q4.10 15.30 4.54 14.97L4.54 14.97L4.54 14.97Q4.98 14.63 4.98 14.08L4.98 14.08L4.98 14.08Q4.98 13.61 4.81 13.34L4.81 13.34L4.81 13.34Q4.63 13.06 4.54 12.93L4.54 12.93L4.54 12.93Q4.44 12.80 4.16 12.55L4.16 12.55L4.16 12.55Q3.88 12.31 3.73 12.19L3.73 12.19L3.73 12.19Q3.58 12.07 3.16 11.74L3.16 11.74L3.16 11.74Q2.74 11.41 2.53 11.24L2.53 11.24L2.53 11.24Q1.37 10.33 1.37 9.06L1.37 9.06L1.37 9.06Q1.37 7.78 2.24 7.12L2.24 7.12L2.24 7.12Q3.11 6.45 4.62 6.45L4.62 6.45L4.62 6.45Q6.51 6.45 6.51 7.76L6.51 7.76L6.51 7.76Q6.51 8.37 5.87 8.88L5.87 8.88L5.87 8.88Q5.28 7.43 3.96 7.43ZM10.15 15.93L10.15 15.93L10.15 15.93Q9.67 16.13 9.22 16.13L9.22 16.13L9.22 16.13Q8.76 16.13 8.57 15.77L8.57 15.77L8.57 15.77Q8.39 15.41 8.39 14.63L8.39 14.63L8.39 14.63Q8.39 13.85 8.96 10.43L8.96 10.43L8.96 10.43Q9.93 4.59 9.24 3.22L9.24 3.22L9.24 3.22Q9.58 2.91 10.12 2.91L10.12 2.91L10.12 2.91Q10.65 2.91 10.89 3.25L10.89 3.25L10.89 3.25Q11.13 3.58 11.13 4.47L11.13 4.47L11.13 4.47Q11.13 5.36 10.66 8.05L10.66 8.05L10.66 8.05Q10.19 10.74 10.11 11.41L10.11 11.41L10.11 11.41Q11.59 7.85 12.66 6.93L12.66 6.93L12.66 6.93Q13.15 6.51 13.64 6.51L13.64 6.51L13.64 6.51Q15.26 6.51 15.26 8.93L15.26 8.93L15.26 8.93Q15.26 9.63 15.10 10.95L15.10 10.95L15.10 10.95Q14.94 12.26 14.94 12.95L14.94 12.95L14.94 12.95Q14.94 14.92 15.55 15.62L15.55 15.62L15.55 15.62Q15.06 16.13 14.57 16.13L14.57 16.13L14.57 16.13Q13.41 16.13 13.41 13.41L13.41 13.41L13.41 13.41Q13.41 12.40 13.64 10.87L13.64 10.87L13.64 10.87Q13.87 9.34 13.87 8.91L13.87 8.91L13.87 8.91Q13.87 8.48 13.71 8.24L13.71 8.24L13.71 8.24Q13.54 7.99 13.12 7.99L13.12 7.99L13.12 7.99Q12.56 7.99 11.77 9.28L11.77 9.28L11.77 9.28Q10.99 10.56 10.45 12.16L10.45 12.16L10.45 12.16Q9.91 13.76 9.91 14.67L9.91 14.67L9.91 14.67Q9.91 15.58 10.15 15.93Z"></path></g><!----><!----></svg>